<svg xmlns="http://www.w3.org/2000/svg" viewBox="0 0 1200 900" role="img" aria-labelledby="title desc">
<title id="title">Contemporary property illustration</title><desc id="desc">A stylized modern residential development in navy, white and gold.</desc>
<defs>
 <linearGradient id="sky" x1="0" y1="0" x2="1" y2="1"><stop offset="0" stop-color="#0b3a72"/><stop offset="1" stop-color="#061a36"/></linearGradient>
 <linearGradient id="gold" x1="0" y1="0" x2="1" y2="1"><stop offset="0" stop-color="#f1cb52"/><stop offset="1" stop-color="#c89208"/></linearGradient>
 <linearGradient id="glass" x1="0" y1="0" x2="0" y2="1"><stop offset="0" stop-color="#a9c7dd" stop-opacity=".9"/><stop offset="1" stop-color="#456c8f" stop-opacity=".78"/></linearGradient>
 <filter id="shadow"><feDropShadow dx="0" dy="22" stdDeviation="22" flood-color="#000" flood-opacity=".24"/></filter>
</defs>
<rect width="1200" height="900" fill="url(#sky)"/>
<circle cx="950" cy="120" r="160" fill="#f0c845" opacity=".08"/><circle cx="950" cy="120" r="105" fill="#f0c845" opacity=".07"/>
<path d="M0 690 C190 640 305 710 495 670 C700 626 845 662 1200 600 L1200 900 L0 900 Z" fill="#0a2a50"/>
<g filter="url(#shadow)">
 <rect x="132" y="330" width="235" height="390" rx="8" fill="#f7f6f0"/>
 <rect x="366" y="246" width="332" height="474" rx="8" fill="#ffffff"/>
 <rect x="698" y="358" width="270" height="362" rx="8" fill="#eef1f4"/>
 <path d="M350 246 H716 L676 208 H392 Z" fill="url(#gold)"/>
 <rect x="424" y="300" width="216" height="122" fill="url(#glass)"/>
 <rect x="424" y="451" width="216" height="170" fill="url(#glass)"/>
 <rect x="168" y="386" width="160" height="90" fill="url(#glass)"/>
 <rect x="168" y="505" width="160" height="126" fill="url(#glass)"/>
 <rect x="742" y="414" width="180" height="92" fill="url(#glass)"/>
 <rect x="742" y="534" width="180" height="102" fill="url(#glass)"/>
 <g stroke="#f8f7f2" stroke-width="8" opacity=".9"><path d="M532 300V422M424 360H640M532 451V621M424 536H640M248 386V476M168 431H328M248 505V631M168 568H328M832 414V506M742 460H922M832 534V636M742 585H922"/></g>
 <rect x="468" y="621" width="128" height="99" fill="#082c59"/>
 <rect x="502" y="644" width="60" height="76" fill="url(#gold)"/>
 <rect x="128" y="704" width="846" height="30" rx="15" fill="#d6d9dd"/>
</g>
<g fill="#d4a112"><circle cx="108" cy="696" r="28"/><circle cx="1012" cy="688" r="34"/><circle cx="1064" cy="704" r="24"/></g>
<g fill="#2b6b4c"><path d="M74 704c0-58 23-109 38-109s36 51 36 109z"/><path d="M980 704c0-69 25-130 43-130s42 61 42 130z"/><path d="M1031 704c0-49 18-91 32-91s32 42 32 91z"/></g>
<path d="M70 776 H1130" stroke="#f0c845" stroke-width="4" stroke-linecap="round" opacity=".75"/>
<path d="M220 818 H980" stroke="#ffffff" stroke-width="2" stroke-linecap="round" opacity=".22"/>
</svg>